<svg width="54" height="54" viewBox="0 0 54 54" fill="none" xmlns="http://www.w3.org/2000/svg">
<g id="Layer_x0020_1">
<g id="_1458799631056">
<g id="Group">
<path id="Vector" fill-rule="evenodd" clip-rule="evenodd" d="M27.0017 0.998535C41.3627 0.998535 53.0048 12.6406 53.0048 27.0017C53.0048 41.3627 41.3627 53.0048 27.0017 53.0048C12.6406 53.0048 0.998535 41.3627 0.998535 27.0017C0.998535 12.6406 12.6406 0.998535 27.0017 0.998535Z" stroke="#05668D" stroke-width="4" stroke-miterlimit="22.9256"/>
</g>
<g id="Group_2">
<path id="Vector_2" fill-rule="evenodd" clip-rule="evenodd" d="M8.21999 17.058C21.3 13.1208 33.658 12.8288 45.5763 17.2464C47.1368 19.7017 47.2121 23.6451 47.5575 28.7378C45.1054 27.6137 32.3676 26.204 32.3676 27.3877L32.3267 45.0831C28.4115 46.0753 23.5889 45.8429 21.5826 45.0486L21.5387 27.328C15.8212 26.8477 11.8244 27.2809 6.44604 28.6624C6.67838 24.631 5.82124 23.3061 8.22312 17.058H8.21999Z" fill="#05668D"/>
<path id="Vector_3" fill-rule="evenodd" clip-rule="evenodd" d="M39.9625 14.3329C31.57 11.8714 16.5371 13.3188 14.176 14.38L13.366 13.3314C18.7537 8.43028 30.7694 4.9138 40.6407 13.3879L39.9625 14.3329Z" fill="#D26211"/>
</g>
</g>
</g>
</svg>
